<?xml version="1.0" encoding="UTF-8" ?>
<svg version="1.1" width="68" height="28" xmlns="http://www.w3.org/2000/svg">
<rect x="0" y="0" width="2" height="2" fill="#FFFFFF" />
<rect x="2" y="0" width="2" height="2" fill="#FFFFFF" />
<rect x="4" y="0" width="2" height="2" fill="#FFFFFF" />
<rect x="6" y="0" width="2" height="2" fill="#FFFFFF" />
<rect x="8" y="0" width="2" height="2" fill="#FFFFFF" />
<rect x="10" y="0" width="2" height="2" fill="#FFFFFF" />
<rect x="12" y="0" width="2" height="2" fill="#FFFFFF" />
<rect x="14" y="0" width="2" height="2" fill="#FFFFFF" />
<rect x="16" y="0" width="2" height="2" fill="#FFFFFF" />
<rect x="18" y="0" width="2" height="2" fill="#FFFFFF" />
<rect x="20" y="0" width="2" height="2" fill="#FFFFFF" />
<rect x="22" y="0" width="2" height="2" fill="#FFFFFF" />
<rect x="24" y="0" width="2" height="2" fill="#FFFFFF" />
<rect x="26" y="0" width="2" height="2" fill="#FFFFFF" />
<rect x="28" y="0" width="2" height="2" fill="#FFFFFF" />
<rect x="30" y="0" width="2" height="2" fill="#FFFFFF" />
<rect x="32" y="0" width="2" height="2" fill="#FFFFFF" />
<rect x="34" y="0" width="2" height="2" fill="#FFFFFF" />
<rect x="36" y="0" width="2" height="2" fill="#FFFFFF" />
<rect x="38" y="0" width="2" height="2" fill="#FFFFFF" />
<rect x="40" y="0" width="2" height="2" fill="#FFFFFF" />
<rect x="42" y="0" width="2" height="2" fill="#FFFFFF" />
<rect x="44" y="0" width="2" height="2" fill="#FFFFFF" />
<rect x="46" y="0" width="2" height="2" fill="#FFFFFF" />
<rect x="48" y="0" width="2" height="2" fill="#FFFFFF" />
<rect x="50" y="0" width="2" height="2" fill="#FFFFFF" />
<rect x="52" y="0" width="2" height="2" fill="#FFFFFF" />
<rect x="54" y="0" width="2" height="2" fill="#FFFFFF" />
<rect x="56" y="0" width="2" height="2" fill="#FFFFFF" />
<rect x="58" y="0" width="2" height="2" fill="#FFFFFF" />
<rect x="60" y="0" width="2" height="2" fill="#FFFFFF" />
<rect x="62" y="0" width="2" height="2" fill="#FFFFFF" />
<rect x="64" y="0" width="2" height="2" fill="#FFFFFF" />
<rect x="66" y="0" width="2" height="2" fill="#FFFFFF" />
<rect x="0" y="2" width="2" height="2" fill="#FFFFFF" />
<rect x="66" y="2" width="2" height="2" fill="#FFFFFF" />
<rect x="0" y="4" width="2" height="2" fill="#FFFFFF" />
<rect x="4" y="4" width="2" height="2" fill="#FFFFFF" />
<rect x="6" y="4" width="2" height="2" fill="#FFFFFF" />
<rect x="8" y="4" width="2" height="2" fill="#FFFFFF" />
<rect x="10" y="4" width="2" height="2" fill="#FFFFFF" />
<rect x="12" y="4" width="2" height="2" fill="#FFFFFF" />
<rect x="14" y="4" width="2" height="2" fill="#FFFFFF" />
<rect x="16" y="4" width="2" height="2" fill="#FFFFFF" />
<rect x="18" y="4" width="2" height="2" fill="#FFFFFF" />
<rect x="20" y="4" width="2" height="2" fill="#FFFFFF" />
<rect x="22" y="4" width="2" height="2" fill="#FFFFFF" />
<rect x="24" y="4" width="2" height="2" fill="#FFFFFF" />
<rect x="26" y="4" width="2" height="2" fill="#FFFFFF" />
<rect x="28" y="4" width="2" height="2" fill="#FFFFFF" />
<rect x="30" y="4" width="2" height="2" fill="#FFFFFF" />
<rect x="32" y="4" width="2" height="2" fill="#FFFFFF" />
<rect x="34" y="4" width="2" height="2" fill="#FFFFFF" />
<rect x="36" y="4" width="2" height="2" fill="#FFFFFF" />
<rect x="38" y="4" width="2" height="2" fill="#FFFFFF" />
<rect x="40" y="4" width="2" height="2" fill="#FFFFFF" />
<rect x="42" y="4" width="2" height="2" fill="#FFFFFF" />
<rect x="44" y="4" width="2" height="2" fill="#FFFFFF" />
<rect x="46" y="4" width="2" height="2" fill="#FFFFFF" />
<rect x="48" y="4" width="2" height="2" fill="#FFFFFF" />
<rect x="50" y="4" width="2" height="2" fill="#FFFFFF" />
<rect x="52" y="4" width="2" height="2" fill="#FFFFFF" />
<rect x="54" y="4" width="2" height="2" fill="#FFFFFF" />
<rect x="56" y="4" width="2" height="2" fill="#FFFFFF" />
<rect x="58" y="4" width="2" height="2" fill="#FFFFFF" />
<rect x="60" y="4" width="2" height="2" fill="#FFFFFF" />
<rect x="62" y="4" width="2" height="2" fill="#FFFFFF" />
<rect x="66" y="4" width="2" height="2" fill="#FFFFFF" />
<rect x="0" y="6" width="2" height="2" fill="#FFFFFF" />
<rect x="4" y="6" width="2" height="2" fill="#FFFFFF" />
<rect x="10" y="6" width="2" height="2" fill="#FFFFFF" />
<rect x="16" y="6" width="2" height="2" fill="#FFFFFF" />
<rect x="22" y="6" width="2" height="2" fill="#FFFFFF" />
<rect x="28" y="6" width="2" height="2" fill="#FFFFFF" />
<rect x="34" y="6" width="2" height="2" fill="#FFFFFF" />
<rect x="40" y="6" width="2" height="2" fill="#FFFFFF" />
<rect x="46" y="6" width="2" height="2" fill="#FFFFFF" />
<rect x="52" y="6" width="2" height="2" fill="#FFFFFF" />
<rect x="62" y="6" width="2" height="2" fill="#FFFFFF" />
<rect x="66" y="6" width="2" height="2" fill="#FFFFFF" />
<rect x="0" y="8" width="2" height="2" fill="#FFFFFF" />
<rect x="4" y="8" width="2" height="2" fill="#FFFFFF" />
<rect x="10" y="8" width="2" height="2" fill="#FFFFFF" />
<rect x="16" y="8" width="2" height="2" fill="#FFFFFF" />
<rect x="22" y="8" width="2" height="2" fill="#FFFFFF" />
<rect x="28" y="8" width="2" height="2" fill="#FFFFFF" />
<rect x="34" y="8" width="2" height="2" fill="#FFFFFF" />
<rect x="40" y="8" width="2" height="2" fill="#FFFFFF" />
<rect x="46" y="8" width="2" height="2" fill="#FFFFFF" />
<rect x="52" y="8" width="2" height="2" fill="#FFFFFF" />
<rect x="62" y="8" width="2" height="2" fill="#FFFFFF" />
<rect x="66" y="8" width="2" height="2" fill="#FFFFFF" />
<rect x="0" y="10" width="2" height="2" fill="#FFFFFF" />
<rect x="4" y="10" width="2" height="2" fill="#FFFFFF" />
<rect x="6" y="10" width="2" height="2" fill="#FFFFFF" />
<rect x="8" y="10" width="2" height="2" fill="#FFFFFF" />
<rect x="10" y="10" width="2" height="2" fill="#FFFFFF" />
<rect x="12" y="10" width="2" height="2" fill="#FFFFFF" />
<rect x="14" y="10" width="2" height="2" fill="#FFFFFF" />
<rect x="16" y="10" width="2" height="2" fill="#FFFFFF" />
<rect x="18" y="10" width="2" height="2" fill="#FFFFFF" />
<rect x="20" y="10" width="2" height="2" fill="#FFFFFF" />
<rect x="22" y="10" width="2" height="2" fill="#FFFFFF" />
<rect x="24" y="10" width="2" height="2" fill="#FFFFFF" />
<rect x="26" y="10" width="2" height="2" fill="#FFFFFF" />
<rect x="28" y="10" width="2" height="2" fill="#FFFFFF" />
<rect x="30" y="10" width="2" height="2" fill="#FFFFFF" />
<rect x="32" y="10" width="2" height="2" fill="#FFFFFF" />
<rect x="34" y="10" width="2" height="2" fill="#FFFFFF" />
<rect x="36" y="10" width="2" height="2" fill="#FFFFFF" />
<rect x="38" y="10" width="2" height="2" fill="#FFFFFF" />
<rect x="40" y="10" width="2" height="2" fill="#FFFFFF" />
<rect x="42" y="10" width="2" height="2" fill="#FFFFFF" />
<rect x="44" y="10" width="2" height="2" fill="#FFFFFF" />
<rect x="46" y="10" width="2" height="2" fill="#FFFFFF" />
<rect x="48" y="10" width="2" height="2" fill="#FFFFFF" />
<rect x="50" y="10" width="2" height="2" fill="#FFFFFF" />
<rect x="52" y="10" width="2" height="2" fill="#FFFFFF" />
<rect x="54" y="10" width="2" height="2" fill="#FFFFFF" />
<rect x="56" y="10" width="2" height="2" fill="#FFFFFF" />
<rect x="58" y="10" width="2" height="2" fill="#FFFFFF" />
<rect x="60" y="10" width="2" height="2" fill="#FFFFFF" />
<rect x="62" y="10" width="2" height="2" fill="#FFFFFF" />
<rect x="66" y="10" width="2" height="2" fill="#FFFFFF" />
<rect x="0" y="12" width="2" height="2" fill="#FFFFFF" />
<rect x="4" y="12" width="2" height="2" fill="#FFFFFF" />
<rect x="12" y="12" width="2" height="2" fill="#FFFFFF" />
<rect x="18" y="12" width="2" height="2" fill="#FFFFFF" />
<rect x="24" y="12" width="2" height="2" fill="#FFFFFF" />
<rect x="30" y="12" width="2" height="2" fill="#FFFFFF" />
<rect x="36" y="12" width="2" height="2" fill="#FFFFFF" />
<rect x="42" y="12" width="2" height="2" fill="#FFFFFF" />
<rect x="48" y="12" width="2" height="2" fill="#FFFFFF" />
<rect x="54" y="12" width="2" height="2" fill="#FFFFFF" />
<rect x="62" y="12" width="2" height="2" fill="#FFFFFF" />
<rect x="66" y="12" width="2" height="2" fill="#FFFFFF" />
<rect x="0" y="14" width="2" height="2" fill="#FFFFFF" />
<rect x="4" y="14" width="2" height="2" fill="#FFFFFF" />
<rect x="12" y="14" width="2" height="2" fill="#FFFFFF" />
<rect x="18" y="14" width="2" height="2" fill="#FFFFFF" />
<rect x="24" y="14" width="2" height="2" fill="#FFFFFF" />
<rect x="30" y="14" width="2" height="2" fill="#FFFFFF" />
<rect x="36" y="14" width="2" height="2" fill="#FFFFFF" />
<rect x="42" y="14" width="2" height="2" fill="#FFFFFF" />
<rect x="48" y="14" width="2" height="2" fill="#FFFFFF" />
<rect x="54" y="14" width="2" height="2" fill="#FFFFFF" />
<rect x="62" y="14" width="2" height="2" fill="#FFFFFF" />
<rect x="66" y="14" width="2" height="2" fill="#FFFFFF" />
<rect x="0" y="16" width="2" height="2" fill="#FFFFFF" />
<rect x="4" y="16" width="2" height="2" fill="#FFFFFF" />
<rect x="6" y="16" width="2" height="2" fill="#FFFFFF" />
<rect x="8" y="16" width="2" height="2" fill="#FFFFFF" />
<rect x="10" y="16" width="2" height="2" fill="#FFFFFF" />
<rect x="12" y="16" width="2" height="2" fill="#FFFFFF" />
<rect x="14" y="16" width="2" height="2" fill="#FFFFFF" />
<rect x="16" y="16" width="2" height="2" fill="#FFFFFF" />
<rect x="18" y="16" width="2" height="2" fill="#FFFFFF" />
<rect x="20" y="16" width="2" height="2" fill="#FFFFFF" />
<rect x="22" y="16" width="2" height="2" fill="#FFFFFF" />
<rect x="24" y="16" width="2" height="2" fill="#FFFFFF" />
<rect x="26" y="16" width="2" height="2" fill="#FFFFFF" />
<rect x="28" y="16" width="2" height="2" fill="#FFFFFF" />
<rect x="30" y="16" width="2" height="2" fill="#FFFFFF" />
<rect x="32" y="16" width="2" height="2" fill="#FFFFFF" />
<rect x="34" y="16" width="2" height="2" fill="#FFFFFF" />
<rect x="36" y="16" width="2" height="2" fill="#FFFFFF" />
<rect x="38" y="16" width="2" height="2" fill="#FFFFFF" />
<rect x="40" y="16" width="2" height="2" fill="#FFFFFF" />
<rect x="42" y="16" width="2" height="2" fill="#FFFFFF" />
<rect x="44" y="16" width="2" height="2" fill="#FFFFFF" />
<rect x="46" y="16" width="2" height="2" fill="#FFFFFF" />
<rect x="48" y="16" width="2" height="2" fill="#FFFFFF" />
<rect x="50" y="16" width="2" height="2" fill="#FFFFFF" />
<rect x="52" y="16" width="2" height="2" fill="#FFFFFF" />
<rect x="54" y="16" width="2" height="2" fill="#FFFFFF" />
<rect x="56" y="16" width="2" height="2" fill="#FFFFFF" />
<rect x="58" y="16" width="2" height="2" fill="#FFFFFF" />
<rect x="60" y="16" width="2" height="2" fill="#FFFFFF" />
<rect x="62" y="16" width="2" height="2" fill="#FFFFFF" />
<rect x="66" y="16" width="2" height="2" fill="#FFFFFF" />
<rect x="0" y="18" width="2" height="2" fill="#FFFFFF" />
<rect x="8" y="18" width="2" height="2" fill="#FFFFFF" />
<rect x="14" y="18" width="2" height="2" fill="#FFFFFF" />
<rect x="20" y="18" width="2" height="2" fill="#FFFFFF" />
<rect x="46" y="18" width="2" height="2" fill="#FFFFFF" />
<rect x="52" y="18" width="2" height="2" fill="#FFFFFF" />
<rect x="58" y="18" width="2" height="2" fill="#FFFFFF" />
<rect x="66" y="18" width="2" height="2" fill="#FFFFFF" />
<rect x="0" y="20" width="2" height="2" fill="#FFFFFF" />
<rect x="8" y="20" width="2" height="2" fill="#FFFFFF" />
<rect x="14" y="20" width="2" height="2" fill="#FFFFFF" />
<rect x="20" y="20" width="2" height="2" fill="#FFFFFF" />
<rect x="46" y="20" width="2" height="2" fill="#FFFFFF" />
<rect x="52" y="20" width="2" height="2" fill="#FFFFFF" />
<rect x="58" y="20" width="2" height="2" fill="#FFFFFF" />
<rect x="66" y="20" width="2" height="2" fill="#FFFFFF" />
<rect x="0" y="22" width="2" height="2" fill="#FFFFFF" />
<rect x="8" y="22" width="2" height="2" fill="#FFFFFF" />
<rect x="10" y="22" width="2" height="2" fill="#FFFFFF" />
<rect x="12" y="22" width="2" height="2" fill="#FFFFFF" />
<rect x="14" y="22" width="2" height="2" fill="#FFFFFF" />
<rect x="16" y="22" width="2" height="2" fill="#FFFFFF" />
<rect x="18" y="22" width="2" height="2" fill="#FFFFFF" />
<rect x="20" y="22" width="2" height="2" fill="#FFFFFF" />
<rect x="22" y="22" width="2" height="2" fill="#FFFFFF" />
<rect x="24" y="22" width="2" height="2" fill="#FFFFFF" />
<rect x="26" y="22" width="2" height="2" fill="#FFFFFF" />
<rect x="28" y="22" width="2" height="2" fill="#FFFFFF" />
<rect x="30" y="22" width="2" height="2" fill="#FFFFFF" />
<rect x="32" y="22" width="2" height="2" fill="#FFFFFF" />
<rect x="34" y="22" width="2" height="2" fill="#FFFFFF" />
<rect x="36" y="22" width="2" height="2" fill="#FFFFFF" />
<rect x="38" y="22" width="2" height="2" fill="#FFFFFF" />
<rect x="40" y="22" width="2" height="2" fill="#FFFFFF" />
<rect x="42" y="22" width="2" height="2" fill="#FFFFFF" />
<rect x="44" y="22" width="2" height="2" fill="#FFFFFF" />
<rect x="46" y="22" width="2" height="2" fill="#FFFFFF" />
<rect x="48" y="22" width="2" height="2" fill="#FFFFFF" />
<rect x="50" y="22" width="2" height="2" fill="#FFFFFF" />
<rect x="52" y="22" width="2" height="2" fill="#FFFFFF" />
<rect x="54" y="22" width="2" height="2" fill="#FFFFFF" />
<rect x="56" y="22" width="2" height="2" fill="#FFFFFF" />
<rect x="58" y="22" width="2" height="2" fill="#FFFFFF" />
<rect x="66" y="22" width="2" height="2" fill="#FFFFFF" />
<rect x="0" y="24" width="2" height="2" fill="#FFFFFF" />
<rect x="66" y="24" width="2" height="2" fill="#FFFFFF" />
<rect x="0" y="26" width="2" height="2" fill="#FFFFFF" />
<rect x="2" y="26" width="2" height="2" fill="#FFFFFF" />
<rect x="4" y="26" width="2" height="2" fill="#FFFFFF" />
<rect x="6" y="26" width="2" height="2" fill="#FFFFFF" />
<rect x="8" y="26" width="2" height="2" fill="#FFFFFF" />
<rect x="10" y="26" width="2" height="2" fill="#FFFFFF" />
<rect x="12" y="26" width="2" height="2" fill="#FFFFFF" />
<rect x="14" y="26" width="2" height="2" fill="#FFFFFF" />
<rect x="16" y="26" width="2" height="2" fill="#FFFFFF" />
<rect x="18" y="26" width="2" height="2" fill="#FFFFFF" />
<rect x="20" y="26" width="2" height="2" fill="#FFFFFF" />
<rect x="22" y="26" width="2" height="2" fill="#FFFFFF" />
<rect x="24" y="26" width="2" height="2" fill="#FFFFFF" />
<rect x="26" y="26" width="2" height="2" fill="#FFFFFF" />
<rect x="28" y="26" width="2" height="2" fill="#FFFFFF" />
<rect x="30" y="26" width="2" height="2" fill="#FFFFFF" />
<rect x="32" y="26" width="2" height="2" fill="#FFFFFF" />
<rect x="34" y="26" width="2" height="2" fill="#FFFFFF" />
<rect x="36" y="26" width="2" height="2" fill="#FFFFFF" />
<rect x="38" y="26" width="2" height="2" fill="#FFFFFF" />
<rect x="40" y="26" width="2" height="2" fill="#FFFFFF" />
<rect x="42" y="26" width="2" height="2" fill="#FFFFFF" />
<rect x="44" y="26" width="2" height="2" fill="#FFFFFF" />
<rect x="46" y="26" width="2" height="2" fill="#FFFFFF" />
<rect x="48" y="26" width="2" height="2" fill="#FFFFFF" />
<rect x="50" y="26" width="2" height="2" fill="#FFFFFF" />
<rect x="52" y="26" width="2" height="2" fill="#FFFFFF" />
<rect x="54" y="26" width="2" height="2" fill="#FFFFFF" />
<rect x="56" y="26" width="2" height="2" fill="#FFFFFF" />
<rect x="58" y="26" width="2" height="2" fill="#FFFFFF" />
<rect x="60" y="26" width="2" height="2" fill="#FFFFFF" />
<rect x="62" y="26" width="2" height="2" fill="#FFFFFF" />
<rect x="64" y="26" width="2" height="2" fill="#FFFFFF" />
<rect x="66" y="26" width="2" height="2" fill="#FFFFFF" />
</svg>