<?xml version="1.0" encoding="UTF-8" ?>
<svg version="1.1" width="24" height="14" xmlns="http://www.w3.org/2000/svg">
<rect x="2" y="0" width="2" height="2" fill="#FFFFFF" />
<rect x="4" y="0" width="2" height="2" fill="#FFFFFF" />
<rect x="6" y="0" width="2" height="2" fill="#FFFFFF" />
<rect x="8" y="0" width="2" height="2" fill="#FFFFFF" />
<rect x="10" y="0" width="2" height="2" fill="#FFFFFF" />
<rect x="12" y="0" width="2" height="2" fill="#FFFFFF" />
<rect x="14" y="0" width="2" height="2" fill="#FFFFFF" />
<rect x="16" y="0" width="2" height="2" fill="#FFFFFF" />
<rect x="18" y="0" width="2" height="2" fill="#FFFFFF" />
<rect x="20" y="0" width="2" height="2" fill="#FFFFFF" />
<rect x="0" y="2" width="2" height="2" fill="#FFFFFF" />
<rect x="2" y="2" width="2" height="2" fill="#FFFFFF" />
<rect x="4" y="2" width="2" height="2" fill="#FFFFFF" />
<rect x="6" y="2" width="2" height="2" fill="#FFFFFF" />
<rect x="10" y="2" width="2" height="2" fill="#FFFFFF" />
<rect x="12" y="2" width="2" height="2" fill="#FFFFFF" />
<rect x="16" y="2" width="2" height="2" fill="#FFFFFF" />
<rect x="18" y="2" width="2" height="2" fill="#FFFFFF" />
<rect x="20" y="2" width="2" height="2" fill="#FFFFFF" />
<rect x="22" y="2" width="2" height="2" fill="#FFFFFF" />
<rect x="0" y="4" width="2" height="2" fill="#FFFFFF" />
<rect x="2" y="4" width="2" height="2" fill="#FFFFFF" />
<rect x="4" y="4" width="2" height="2" fill="#FFFFFF" />
<rect x="6" y="4" width="2" height="2" fill="#FFFFFF" />
<rect x="10" y="4" width="2" height="2" fill="#FFFFFF" />
<rect x="12" y="4" width="2" height="2" fill="#FFFFFF" />
<rect x="16" y="4" width="2" height="2" fill="#FFFFFF" />
<rect x="18" y="4" width="2" height="2" fill="#FFFFFF" />
<rect x="20" y="4" width="2" height="2" fill="#FFFFFF" />
<rect x="22" y="4" width="2" height="2" fill="#FFFFFF" />
<rect x="0" y="6" width="2" height="2" fill="#FFFFFF" />
<rect x="2" y="6" width="2" height="2" fill="#FFFFFF" />
<rect x="4" y="6" width="2" height="2" fill="#FFFFFF" />
<rect x="6" y="6" width="2" height="2" fill="#FFFFFF" />
<rect x="10" y="6" width="2" height="2" fill="#FFFFFF" />
<rect x="12" y="6" width="2" height="2" fill="#FFFFFF" />
<rect x="16" y="6" width="2" height="2" fill="#FFFFFF" />
<rect x="18" y="6" width="2" height="2" fill="#FFFFFF" />
<rect x="20" y="6" width="2" height="2" fill="#FFFFFF" />
<rect x="22" y="6" width="2" height="2" fill="#FFFFFF" />
<rect x="0" y="8" width="2" height="2" fill="#FFFFFF" />
<rect x="2" y="8" width="2" height="2" fill="#FFFFFF" />
<rect x="4" y="8" width="2" height="2" fill="#FFFFFF" />
<rect x="6" y="8" width="2" height="2" fill="#FFFFFF" />
<rect x="10" y="8" width="2" height="2" fill="#FFFFFF" />
<rect x="12" y="8" width="2" height="2" fill="#FFFFFF" />
<rect x="16" y="8" width="2" height="2" fill="#FFFFFF" />
<rect x="18" y="8" width="2" height="2" fill="#FFFFFF" />
<rect x="20" y="8" width="2" height="2" fill="#FFFFFF" />
<rect x="22" y="8" width="2" height="2" fill="#FFFFFF" />
<rect x="0" y="10" width="2" height="2" fill="#FFFFFF" />
<rect x="2" y="10" width="2" height="2" fill="#FFFFFF" />
<rect x="4" y="10" width="2" height="2" fill="#FFFFFF" />
<rect x="6" y="10" width="2" height="2" fill="#FFFFFF" />
<rect x="10" y="10" width="2" height="2" fill="#FFFFFF" />
<rect x="12" y="10" width="2" height="2" fill="#FFFFFF" />
<rect x="16" y="10" width="2" height="2" fill="#FFFFFF" />
<rect x="18" y="10" width="2" height="2" fill="#FFFFFF" />
<rect x="20" y="10" width="2" height="2" fill="#FFFFFF" />
<rect x="22" y="10" width="2" height="2" fill="#FFFFFF" />
<rect x="2" y="12" width="2" height="2" fill="#FFFFFF" />
<rect x="4" y="12" width="2" height="2" fill="#FFFFFF" />
<rect x="6" y="12" width="2" height="2" fill="#FFFFFF" />
<rect x="8" y="12" width="2" height="2" fill="#FFFFFF" />
<rect x="10" y="12" width="2" height="2" fill="#FFFFFF" />
<rect x="12" y="12" width="2" height="2" fill="#FFFFFF" />
<rect x="14" y="12" width="2" height="2" fill="#FFFFFF" />
<rect x="16" y="12" width="2" height="2" fill="#FFFFFF" />
<rect x="18" y="12" width="2" height="2" fill="#FFFFFF" />
<rect x="20" y="12" width="2" height="2" fill="#FFFFFF" />
</svg>